<svg version="1.1" id="Layer_1" xmlns="http://www.w3.org/2000/svg" xmlns:xlink="http://www.w3.org/1999/xlink" x="0px" y="0px"
	 width="100%" viewBox="0 0 520 480" enable-background="new 0 0 520 480" xml:space="preserve">
<path fill="#000000" opacity="1.000000" stroke="none" 
	d="
M284.000000,481.000000 
	C189.333359,481.000000 95.166710,481.000000 1.000051,481.000000 
	C1.000034,321.000061 1.000034,161.000122 1.000017,1.000136 
	C174.333237,1.000091 347.666473,1.000091 520.999756,1.000046 
	C520.999878,160.999863 520.999878,320.999725 520.999939,480.999786 
	C442.166656,481.000000 363.333344,481.000000 284.000000,481.000000 
M361.014526,340.033325 
	C369.964630,338.382904 379.149536,337.518646 387.819305,334.929596 
	C410.666534,328.106812 429.745575,315.365021 445.456848,297.219757 
	C463.369781,276.531738 473.337830,252.500656 475.739227,225.629364 
	C477.038177,211.094620 476.631744,196.329926 473.115479,181.813263 
	C467.469727,158.505264 456.420654,138.381073 439.746124,121.178276 
	C427.544342,108.589905 413.319946,99.043022 397.108307,92.660957 
	C384.881714,87.847679 372.227356,84.294243 358.299316,83.853767 
	C352.887512,78.754921 347.889435,73.108162 341.990723,68.654152 
	C319.130127,51.392513 293.289154,41.863209 264.576477,41.139194 
	C255.494690,40.910194 246.328735,41.973675 237.276535,43.067951 
	C221.301987,44.999039 206.970978,51.739319 193.102173,59.444252 
	C181.863159,65.688194 172.236511,74.063385 162.380615,83.186470 
	C156.951569,84.113953 151.492050,84.892349 146.098770,85.994843 
	C123.283440,90.658760 103.010796,100.771248 86.157509,116.672699 
	C77.918182,124.446671 70.703308,133.669556 64.564125,143.225586 
	C53.960922,159.730164 47.635284,177.983490 46.182762,198.286209 
	C46.117527,206.074844 45.999416,213.863693 46.033272,221.651901 
	C46.039764,223.145081 46.644020,224.635651 46.971188,227.008865 
	C47.502426,231.389862 47.804436,235.813339 48.607227,240.143997 
	C51.172611,253.982925 55.959488,267.147308 63.597000,278.884003 
	C69.789963,288.400848 76.611298,297.798615 84.625885,305.769073 
	C95.355957,316.440063 108.004852,324.876373 122.219276,330.694000 
	C134.965225,335.910614 147.963760,339.843719 162.286163,340.816254 
	C170.844879,340.907532 179.403580,340.998810 187.989166,342.015625 
	C189.537262,362.568390 184.758713,381.500214 173.470337,399.046631 
	C202.299484,387.722961 223.686386,368.329742 238.979797,341.006500 
	C277.699127,341.006073 316.418488,341.017731 355.137726,340.964020 
	C356.800354,340.961700 358.462158,340.356232 361.014526,340.033325 
z"/>
<path fill="#75ED86" opacity="1.000000" stroke="none" 
	d="
M358.887421,84.173630 
	C372.227356,84.294243 384.881714,87.847679 397.108307,92.660957 
	C413.319946,99.043022 427.544342,108.589905 439.746124,121.178276 
	C456.420654,138.381073 467.469727,158.505264 473.115479,181.813263 
	C476.631744,196.329926 477.038177,211.094620 475.739227,225.629364 
	C473.337830,252.500656 463.369781,276.531738 445.456848,297.219757 
	C429.745575,315.365021 410.666534,328.106812 387.819305,334.929596 
	C379.149536,337.518646 369.964630,338.382904 360.094635,339.988525 
	C320.652710,339.965698 282.130646,339.972931 243.608749,340.054749 
	C241.756638,340.058655 239.905914,340.720306 238.054550,341.075684 
	C223.686386,368.329742 202.299484,387.722961 173.470337,399.046631 
	C184.758713,381.500214 189.537262,362.568390 187.733643,341.208069 
	C178.942368,340.276154 170.406601,340.151733 161.870834,340.027344 
	C147.963760,339.843719 134.965225,335.910614 122.219276,330.694000 
	C108.004852,324.876373 95.355957,316.440063 84.625885,305.769073 
	C76.611298,297.798615 69.789963,288.400848 63.597000,278.884003 
	C55.959488,267.147308 51.172611,253.982925 48.607227,240.143997 
	C47.804436,235.813339 47.502426,231.389862 47.020969,226.093369 
	C47.038029,216.075943 47.005302,206.974030 46.972580,197.872101 
	C47.635284,177.983490 53.960922,159.730164 64.564125,143.225586 
	C70.703308,133.669556 77.918182,124.446671 86.157509,116.672699 
	C103.010796,100.771248 123.283440,90.658760 146.098770,85.994843 
	C151.492050,84.892349 156.951569,84.113953 162.770493,83.531326 
	C161.916260,85.602058 160.752457,87.392982 159.415604,89.043770 
	C145.848129,105.797134 136.404755,124.503365 132.270233,146.146362 
	C129.556030,159.532166 128.233307,172.638290 130.323761,186.362976 
	C131.663132,200.505997 134.813019,213.698013 140.993362,226.435608 
	C145.800461,234.860153 150.568665,242.927887 155.456848,251.290695 
	C171.428070,272.833954 191.858337,288.030579 216.796738,296.843506 
	C243.550446,306.297943 270.690063,307.484406 298.387207,298.982819 
	C315.855011,294.064209 331.087158,285.717896 344.916382,274.123993 
	C357.490814,263.944366 367.671722,252.128876 375.390442,237.826157 
	C387.347504,217.080917 392.890076,194.933685 392.787506,171.386642 
	C392.703094,152.007736 387.949097,133.630066 380.541260,115.983337 
	C400.177460,123.238861 416.269775,134.853561 428.740021,151.255066 
	C440.292419,166.449448 447.042969,183.739059 448.851257,202.654480 
	C450.013275,214.809555 448.814972,227.002884 446.079193,238.999084 
	C445.743988,240.468750 446.970612,242.294571 447.473419,243.955338 
	C448.971497,242.752487 451.437592,241.797241 451.818359,240.308594 
	C455.747833,224.946472 457.111725,209.524658 454.142731,193.655106 
	C448.327332,162.571426 432.307922,138.411957 406.254730,120.874825 
	C397.361755,114.888695 387.822418,109.949287 376.646790,108.127625 
	C370.495026,100.081802 364.691223,92.127716 358.887421,84.173630 
M69.071037,186.829697 
	C68.771767,188.425415 68.145592,190.040054 68.236687,191.613159 
	C68.475975,195.745529 64.146469,200.575089 70.827248,204.552612 
	C71.935699,202.116013 73.555115,199.974442 73.860504,197.659531 
	C76.208488,179.861359 83.350861,164.093979 93.829033,149.742340 
	C95.388611,147.606216 97.602715,145.538177 94.712669,143.705338 
	C93.595169,142.996628 89.919853,144.481064 88.741692,145.999649 
	C79.473907,157.945404 73.118797,171.378448 69.071037,186.829697 
M69.516403,221.015366 
	C68.690643,223.248352 66.826401,225.677612 67.205391,227.682907 
	C69.940239,242.153244 73.885666,256.248535 81.960625,268.855774 
	C83.333092,270.998535 84.372604,272.754120 87.165596,270.982025 
	C89.812759,269.302460 89.215965,267.634949 87.821625,265.237366 
	C81.680466,254.677719 77.149536,243.515594 74.724747,231.420563 
	C74.024376,227.927048 75.816811,222.718033 69.516403,221.015366 
M425.385986,287.079926 
	C428.002014,284.140869 431.000519,281.455505 433.153778,278.209442 
	C437.524689,271.620331 441.562134,264.796387 445.392548,257.878540 
	C445.902466,256.957672 444.406006,254.925858 443.838684,253.408524 
	C442.559387,253.964264 440.774719,254.158890 440.079498,255.131958 
	C433.578217,264.230896 427.168701,273.400482 421.004425,282.729218 
	C420.144226,284.030945 420.755920,286.305298 420.686249,288.129425 
	C422.087433,287.966583 423.488617,287.803741 425.385986,287.079926 
z"/>
<path fill="#FFDD01" opacity="1.000000" stroke="none" 
	d="
M132.422531,145.810699 
	C136.404755,124.503365 145.848129,105.797134 159.415604,89.043770 
	C160.752457,87.392982 161.916260,85.602058 163.195282,83.523392 
	C172.236511,74.063385 181.863159,65.688194 193.102173,59.444252 
	C206.970978,51.739319 221.301987,44.999039 237.276535,43.067951 
	C246.328735,41.973675 255.494690,40.910194 264.576477,41.139194 
	C293.289154,41.863209 319.130127,51.392513 341.990723,68.654152 
	C347.889435,73.108162 352.887512,78.754921 358.593384,84.013702 
	C364.691223,92.127716 370.495026,100.081802 376.649109,108.490883 
	C378.057495,111.287399 379.115601,113.628929 380.173706,115.970459 
	C387.949097,133.630066 392.703094,152.007736 392.787506,171.386642 
	C392.890076,194.933685 387.347504,217.080917 374.958801,237.810608 
	C368.936890,237.158508 363.995880,235.712112 359.299377,240.948074 
	C350.281494,251.001801 340.477722,260.350616 330.652466,270.039734 
	C317.880157,278.491852 304.541138,284.884033 289.940308,288.541931 
	C287.259644,289.213501 284.644196,290.145172 281.544861,290.964172 
	C278.931427,291.014954 276.745056,290.854492 274.616241,291.133240 
	C252.296555,294.055725 230.812012,290.764740 210.839310,280.676208 
	C200.014801,275.208588 190.263123,267.617004 179.870392,260.690002 
	C171.811920,250.262650 163.910538,240.128799 155.963318,229.634949 
	C149.956543,217.075775 145.321747,204.428879 142.997620,190.557373 
	C142.997421,189.115067 142.995560,188.117996 142.992203,187.120941 
	C142.958832,177.227982 142.834595,167.334152 142.930588,157.442459 
	C142.977371,152.623123 140.810989,149.444672 135.891953,147.724838 
	C134.662674,147.295059 133.575180,146.459671 132.422531,145.810699 
M207.999039,183.022812 
	C208.363831,186.427567 208.398483,189.906693 209.145996,193.225235 
	C214.785294,218.260269 239.621704,238.136414 265.980652,234.206131 
	C281.298767,231.922073 293.657043,225.656555 302.963409,213.461853 
	C310.015320,204.221268 314.088379,193.830429 313.486725,181.245316 
	C278.677917,181.165298 243.869110,181.081833 209.060257,181.053467 
	C208.706482,181.053177 208.352127,181.779907 207.999039,183.022812 
M289.515961,146.160110 
	C288.968475,147.185089 288.460388,148.233536 287.866089,149.230606 
	C286.120758,152.158890 284.892517,155.436783 288.535767,157.440811 
	C292.210632,159.462204 293.754120,156.243362 295.874878,153.667862 
	C298.846954,150.058533 302.263916,146.135086 306.365387,144.274796 
	C315.523071,140.121170 324.904633,144.541931 330.201080,154.555038 
	C331.655151,157.304047 333.683899,159.272797 336.352600,157.418228 
	C337.821259,156.397583 338.906403,153.047134 338.394165,151.252319 
	C335.747070,141.977585 324.679413,134.474335 315.015320,133.882111 
	C304.343658,133.228134 296.481812,137.769058 289.515961,146.160110 
M224.260040,138.119354 
	C210.023621,129.261902 191.151642,134.753113 184.101776,149.787613 
	C182.718277,152.738068 181.942154,155.825073 185.515594,157.500687 
	C188.921265,159.097656 190.726074,157.061005 192.322510,153.867020 
	C195.950180,146.609131 201.894058,142.473831 210.320343,143.018082 
	C217.653214,143.491699 223.298737,146.739975 226.376694,153.721176 
	C227.806519,156.964218 229.984131,159.325333 233.692581,157.413452 
	C237.415253,155.494263 236.171646,151.960739 234.527039,149.632599 
	C231.710129,145.644882 228.139542,142.189545 224.260040,138.119354 
M337.994812,92.494301 
	C342.522003,97.686836 347.121246,102.819046 351.541168,108.101311 
	C353.332794,110.242485 355.602386,111.406036 357.546234,109.519569 
	C358.463348,108.629547 358.142426,105.314911 357.197601,103.877983 
	C354.703766,100.085213 351.502106,96.765381 348.689789,93.173096 
	C340.498047,82.709572 329.865448,75.269814 318.369812,69.011055 
	C316.854523,68.186043 313.181946,68.476265 312.506348,69.530418 
	C310.951813,71.955917 312.304962,73.917671 315.055847,75.734932 
	C322.754944,80.821037 330.041779,86.531258 337.994812,92.494301 
M371.939575,138.559158 
	C372.291748,136.848663 373.352814,134.896454 372.867004,133.471680 
	C371.219696,128.640350 369.022888,123.996567 367.040680,119.279175 
	C365.954926,116.695305 363.938965,114.822220 361.467072,116.529900 
	C360.415741,117.256195 360.429413,120.617905 361.027161,122.429497 
	C362.729370,127.588348 365.213470,132.488571 366.928650,137.644012 
	C367.954468,140.727310 369.475922,139.763702 371.939575,138.559158 
z"/>
<path fill="#D2F8DA" opacity="1.000000" stroke="none" 
	d="
M238.517181,341.041077 
	C239.905914,340.720306 241.756638,340.058655 243.608749,340.054749 
	C282.130646,339.972931 320.652710,339.965698 359.649536,339.987732 
	C358.462158,340.356232 356.800354,340.961700 355.137726,340.964020 
	C316.418488,341.017731 277.699127,341.006073 238.517181,341.041077 
z"/>
<path fill="#CDF7D3" opacity="1.000000" stroke="none" 
	d="
M46.577667,198.079163 
	C47.005302,206.974030 47.038029,216.075943 47.021629,225.652649 
	C46.644020,224.635651 46.039764,223.145081 46.033272,221.651901 
	C45.999416,213.863693 46.117527,206.074844 46.577667,198.079163 
z"/>
<path fill="#D5F8DB" opacity="1.000000" stroke="none" 
	d="
M162.078491,340.421814 
	C170.406601,340.151733 178.942368,340.276154 187.720215,340.745331 
	C179.403580,340.998810 170.844879,340.907532 162.078491,340.421814 
z"/>
<path fill="#FDB802" opacity="1.000000" stroke="none" 
	d="
M180.027496,260.983551 
	C190.263123,267.617004 200.014801,275.208588 210.839310,280.676208 
	C230.812012,290.764740 252.296555,294.055725 274.616241,291.133240 
	C276.745056,290.854492 278.931427,291.014954 281.598206,291.338196 
	C284.467224,292.795563 286.826019,293.892944 289.191681,294.975311 
	C292.124878,296.317291 295.063782,297.646851 298.000214,298.981781 
	C270.690063,307.484406 243.550446,306.297943 216.796738,296.843506 
	C191.858337,288.030579 171.428070,272.833954 155.808105,251.304504 
	C157.979126,251.858902 159.908463,252.719879 161.860596,253.525543 
	C167.911575,256.022858 173.971222,258.499115 180.027496,260.983551 
z"/>
<path fill="#000000" opacity="1.000000" stroke="none" 
	d="
M380.541260,115.983337 
	C379.115601,113.628929 378.057495,111.287399 376.997070,108.582611 
	C387.822418,109.949287 397.361755,114.888695 406.254730,120.874825 
	C432.307922,138.411957 448.327332,162.571426 454.142731,193.655106 
	C457.111725,209.524658 455.747833,224.946472 451.818359,240.308594 
	C451.437592,241.797241 448.971497,242.752487 447.473419,243.955338 
	C446.970612,242.294571 445.743988,240.468750 446.079193,238.999084 
	C448.814972,227.002884 450.013275,214.809555 448.851257,202.654480 
	C447.042969,183.739059 440.292419,166.449448 428.740021,151.255066 
	C416.269775,134.853561 400.177460,123.238861 380.541260,115.983337 
z"/>
<path fill="#FDC202" opacity="1.000000" stroke="none" 
	d="
M298.387207,298.982819 
	C295.063782,297.646851 292.124878,296.317291 289.191681,294.975311 
	C286.826019,293.892944 284.467224,292.795563 282.052002,291.330841 
	C284.644196,290.145172 287.259644,289.213501 289.940308,288.541931 
	C304.541138,284.884033 317.880157,278.491852 330.874695,270.315430 
	C335.840149,271.776581 340.235840,273.009949 344.631531,274.243317 
	C331.087158,285.717896 315.855011,294.064209 298.387207,298.982819 
z"/>
<path fill="#FCCF03" opacity="1.000000" stroke="none" 
	d="
M344.916382,274.123993 
	C340.235840,273.009949 335.840149,271.776581 331.222229,270.267517 
	C340.477722,260.350616 350.281494,251.001801 359.299377,240.948074 
	C363.995880,235.712112 368.936890,237.158508 374.699036,238.032166 
	C367.671722,252.128876 357.490814,263.944366 344.916382,274.123993 
z"/>
<path fill="#FDC502" opacity="1.000000" stroke="none" 
	d="
M142.995270,191.002609 
	C145.321747,204.428879 149.956543,217.075775 155.588257,229.629181 
	C154.109726,229.433044 153.012817,228.665146 151.801224,228.373154 
	C148.209885,227.507721 144.573334,226.829926 140.954453,226.078766 
	C134.813019,213.698013 131.663132,200.505997 130.755920,186.400055 
	C135.133133,187.649765 139.064194,189.326187 142.995270,191.002609 
z"/>
<path fill="#FCD003" opacity="1.000000" stroke="none" 
	d="
M142.997620,190.557373 
	C139.064194,189.326187 135.133133,187.649765 130.769897,185.936264 
	C128.233307,172.638290 129.556030,159.532166 132.270233,146.146362 
	C133.575180,146.459671 134.662674,147.295059 135.891953,147.724838 
	C140.810989,149.444672 142.977371,152.623123 142.930588,157.442459 
	C142.834595,167.334152 142.958832,177.227982 142.992203,187.120941 
	C142.995560,188.117996 142.997421,189.115067 142.997620,190.557373 
z"/>
<path fill="#FDBD02" opacity="1.000000" stroke="none" 
	d="
M140.993362,226.435593 
	C144.573334,226.829926 148.209885,227.507721 151.801224,228.373154 
	C153.012817,228.665146 154.109726,229.433044 155.634094,229.989197 
	C163.910538,240.128799 171.811920,250.262650 179.870392,260.690002 
	C173.971222,258.499115 167.911575,256.022858 161.860596,253.525543 
	C159.908463,252.719879 157.979126,251.858902 155.688110,251.009399 
	C150.568665,242.927887 145.800461,234.860153 140.993362,226.435593 
z"/>
<path fill="#000000" opacity="1.000000" stroke="none" 
	d="
M69.255569,186.444855 
	C73.118797,171.378448 79.473907,157.945404 88.741692,145.999649 
	C89.919853,144.481064 93.595169,142.996628 94.712669,143.705338 
	C97.602715,145.538177 95.388611,147.606216 93.829033,149.742340 
	C83.350861,164.093979 76.208488,179.861359 73.860504,197.659531 
	C73.555115,199.974442 71.935699,202.116013 70.827248,204.552612 
	C64.146469,200.575089 68.475975,195.745529 68.236687,191.613159 
	C68.145592,190.040054 68.771767,188.425415 69.255569,186.444855 
z"/>
<path fill="#000000" opacity="1.000000" stroke="none" 
	d="
M69.929497,221.011078 
	C75.816811,222.718033 74.024376,227.927048 74.724747,231.420563 
	C77.149536,243.515594 81.680466,254.677719 87.821625,265.237366 
	C89.215965,267.634949 89.812759,269.302460 87.165596,270.982025 
	C84.372604,272.754120 83.333092,270.998535 81.960625,268.855774 
	C73.885666,256.248535 69.940239,242.153244 67.205391,227.682907 
	C66.826401,225.677612 68.690643,223.248352 69.929497,221.011078 
z"/>
<path fill="#000000" opacity="1.000000" stroke="none" 
	d="
M425.137878,287.360413 
	C423.488617,287.803741 422.087433,287.966583 420.686249,288.129425 
	C420.755920,286.305298 420.144226,284.030945 421.004425,282.729218 
	C427.168701,273.400482 433.578217,264.230896 440.079498,255.131958 
	C440.774719,254.158890 442.559387,253.964264 443.838684,253.408539 
	C444.406006,254.925858 445.902466,256.957672 445.392548,257.878540 
	C441.562134,264.796387 437.524689,271.620331 433.153778,278.209442 
	C431.000519,281.455505 428.002014,284.140869 425.137878,287.360413 
z"/>
<path fill="#000000" opacity="1.000000" stroke="none" 
	d="
M313.852417,182.008118 
	C314.088379,193.830429 310.015320,204.221268 302.963409,213.461853 
	C293.657043,225.656555 281.298767,231.922073 265.980652,234.206131 
	C239.621704,238.136414 214.785294,218.260269 209.145996,193.225235 
	C208.398483,189.906693 208.363831,186.427567 208.463425,182.518250 
	C243.902679,182.011826 278.877563,182.009979 313.852417,182.008118 
z"/>
<path fill="#FEA701" opacity="1.000000" stroke="none" 
	d="
M289.740295,145.874496 
	C296.481812,137.769058 304.343658,133.228134 315.015320,133.882111 
	C324.679413,134.474335 335.747070,141.977585 338.394165,151.252319 
	C338.906403,153.047134 337.821259,156.397583 336.352600,157.418228 
	C333.683899,159.272797 331.655151,157.304047 330.201080,154.555038 
	C324.904633,144.541931 315.523071,140.121170 306.365387,144.274796 
	C302.263916,146.135086 298.846954,150.058533 295.874878,153.667862 
	C293.754120,156.243362 292.210632,159.462204 288.535767,157.440811 
	C284.892517,155.436783 286.120758,152.158890 287.866089,149.230606 
	C288.460388,148.233536 288.968475,147.185089 289.740295,145.874496 
z"/>
<path fill="#FEA701" opacity="1.000000" stroke="none" 
	d="
M224.572723,138.315002 
	C228.139542,142.189545 231.710129,145.644882 234.527039,149.632599 
	C236.171646,151.960739 237.415253,155.494263 233.692581,157.413452 
	C229.984131,159.325333 227.806519,156.964218 226.376694,153.721176 
	C223.298737,146.739975 217.653214,143.491699 210.320343,143.018082 
	C201.894058,142.473831 195.950180,146.609131 192.322510,153.867020 
	C190.726074,157.061005 188.921265,159.097656 185.515594,157.500687 
	C181.942154,155.825073 182.718277,152.738068 184.101776,149.787613 
	C191.151642,134.753113 210.023621,129.261902 224.572723,138.315002 
z"/>
<path fill="#000000" opacity="1.000000" stroke="none" 
	d="
M337.743042,92.244751 
	C330.041779,86.531258 322.754944,80.821037 315.055847,75.734932 
	C312.304962,73.917671 310.951813,71.955917 312.506348,69.530418 
	C313.181946,68.476265 316.854523,68.186043 318.369812,69.011055 
	C329.865448,75.269814 340.498047,82.709572 348.689789,93.173096 
	C351.502106,96.765381 354.703766,100.085213 357.197601,103.877983 
	C358.142426,105.314911 358.463348,108.629547 357.546234,109.519569 
	C355.602386,111.406036 353.332794,110.242485 351.541168,108.101311 
	C347.121246,102.819046 342.522003,97.686836 337.743042,92.244751 
z"/>
<path fill="#000000" opacity="1.000000" stroke="none" 
	d="
M371.617737,138.758972 
	C369.475922,139.763702 367.954468,140.727310 366.928650,137.644012 
	C365.213470,132.488571 362.729370,127.588348 361.027161,122.429497 
	C360.429413,120.617905 360.415741,117.256195 361.467072,116.529900 
	C363.938965,114.822220 365.954926,116.695305 367.040680,119.279175 
	C369.022888,123.996567 371.219696,128.640350 372.867004,133.471680 
	C373.352814,134.896454 372.291748,136.848663 371.617737,138.758972 
z"/>
<path fill="#FEF7C4" opacity="1.000000" stroke="none" 
	d="
M313.669556,181.626709 
	C278.877563,182.009979 243.902679,182.011826 208.462921,182.090454 
	C208.352127,181.779907 208.706482,181.053177 209.060257,181.053467 
	C243.869110,181.081833 278.677917,181.165298 313.669556,181.626709 
z"/>
</svg>